<svg width="62" height="62" viewBox="0 0 838 838" fill="none" xmlns="http://www.w3.org/2000/svg">
<circle cx="419" cy="419" r="419" fill="#6D7FB8"/>
<path d="M367.836 535.06C371.128 535.786 373.273 535.994 374.271 535.683C374.906 537.018 375.881 537.864 377.196 538.221C378.68 538.415 379.989 539.102 381.122 540.282C383.753 540.995 385.804 541.78 387.275 542.635C391.194 545.027 394.146 546.243 396.129 546.282C397.91 548.135 399.698 549.658 401.493 550.851C403.288 552.044 404.992 553.648 406.605 555.663C407.531 558.988 408.635 561.654 409.918 563.663C411.369 565.51 412.159 567.344 412.288 569.165C414.238 570.857 415.278 572.613 415.407 574.434C415.537 576.255 416.243 578.17 417.525 580.179C416.845 581.157 416.984 582.482 417.942 584.154C417.08 585.955 416.879 587.77 417.339 589.597C417.967 591.262 417.685 592.992 416.492 594.787C416.77 597.437 416.9 599.258 416.88 600.25C416.86 601.241 416.676 602.229 416.326 603.214C416.591 606.525 416.548 608.673 416.198 609.658C416.01 610.812 415.572 612.043 414.885 613.352C415.358 614.518 415.423 615.429 415.079 616.083C414.897 616.906 415.043 617.901 415.516 619.067C415.133 621.704 414.686 623.431 414.174 624.247C413.662 625.064 413.642 626.055 414.115 627.222C413.226 630.345 412.688 632.483 412.5 633.636C412.48 634.628 412.458 635.784 412.431 637.106C412.412 638.098 412.23 638.921 411.887 639.575C411.543 640.229 411.614 640.809 412.1 641.315C410.752 642.611 410.557 644.094 411.516 645.766C410.317 647.892 409.465 649.197 408.959 649.683C408.421 651.821 408.061 653.302 407.879 654.125C407.698 654.948 407.681 655.774 407.83 656.603C407.273 659.733 406.913 661.214 406.751 661.045C406.724 662.367 406.368 663.682 405.681 664.991C405.162 666.138 404.89 667.372 404.864 668.694C403.995 670.826 403.386 672.384 403.035 673.369C403.016 674.36 403.161 675.355 403.472 676.353C401.768 678.964 400.993 680.519 401.148 681.018C401.304 681.517 401.21 682.094 400.866 682.748C398.514 684.685 397.564 686.733 398.017 688.891C397.35 689.208 396.844 689.694 396.501 690.348C396.319 691.171 395.891 691.907 395.217 692.554C393.351 694.997 392.249 696.38 391.912 696.704C391.393 697.851 390.632 698.745 389.627 699.386C388.953 700.034 388.522 700.935 388.334 702.088C387.005 702.393 385.91 703.445 385.048 705.247C384.192 706.717 383.599 707.449 383.269 707.443C383.1 707.605 382.848 707.848 382.511 708.172C381.338 708.975 380.242 710.028 379.225 711.33C378.207 712.632 377.196 713.604 376.192 714.245C374.021 715.36 372.77 715.913 372.44 715.907C372.44 715.907 372.109 715.9 371.448 715.887C371.267 716.71 370.758 717.361 369.922 717.841C369.254 718.158 368.587 718.475 367.919 718.793C366.915 719.434 365.907 720.241 364.896 721.212C364.215 722.191 363.292 722.916 362.125 723.389C359.436 725.65 357.511 726.852 356.351 726.994C355.191 727.136 353.937 727.856 352.589 729.151C349.764 729.922 347.451 729.876 345.649 729.014C344.139 730.141 343.135 730.782 342.636 730.938C342.299 731.262 341.884 731.336 341.392 731.161C337.886 732.91 334.153 733.58 330.194 733.171C329.216 732.491 328.565 731.982 328.241 731.645C327.748 731.47 327.172 731.376 326.511 731.363C326.012 731.518 325.425 731.92 324.751 732.567C324.077 733.215 323.41 733.533 322.749 733.52C320.112 733.137 318.466 732.774 317.811 732.43C317.15 732.417 316.908 732.164 317.083 731.672C314.283 731.121 312.803 730.761 312.641 730.592C312.479 730.424 312.152 730.252 311.659 730.077C309.514 729.869 308.199 729.512 307.713 729.007C307.059 728.663 306.323 728.236 305.507 727.724C304.678 727.872 303.855 727.691 303.038 727.179C302.053 726.829 301.146 726.728 300.317 726.877C298.185 726.008 296.957 725.405 296.633 725.068C296.309 724.731 296.06 724.809 295.885 725.302C294.272 723.286 293.047 722.518 292.211 722.997C290.929 720.988 290.122 719.981 289.792 719.974C289.623 720.136 289.377 720.048 289.053 719.711C288.263 717.877 287.621 716.873 287.129 716.698C286.637 716.523 286.147 716.183 285.662 715.677C285.182 714.841 284.871 713.843 284.729 712.683C284.58 711.854 283.848 711.261 282.533 710.904C282.889 709.589 282.585 708.26 281.62 706.919C280.648 705.908 279.841 704.9 279.2 703.896C279.55 702.911 279.897 702.091 280.24 701.437C280.584 700.782 280.516 700.037 280.037 699.201C278.903 698.021 278.174 697.263 277.85 696.926C277.52 696.92 277.361 696.586 277.374 695.925C276.908 694.428 276.762 693.433 276.937 692.941C277.112 692.449 276.957 691.95 276.471 691.444C276.18 689.455 276.044 687.964 276.064 686.973C275.915 686.143 275.766 685.314 275.617 684.485C275.164 682.327 274.859 680.998 274.704 680.499C274.542 680.331 274.464 680.081 274.471 679.751C274.491 678.759 274.51 677.768 274.53 676.777C274.711 675.954 274.809 675.212 274.822 674.551C274.537 672.231 274.401 670.741 274.414 670.08C274.589 669.587 274.265 669.25 273.443 669.069C274.156 666.438 274.435 664.873 274.279 664.374C274.292 663.713 274.552 663.14 275.057 662.654C274.753 661.325 274.782 659.838 275.146 658.192C275.347 656.378 275.535 655.225 275.71 654.732C275.885 654.24 275.811 653.825 275.487 653.488C276.051 650.028 276.609 646.898 277.16 644.099C277.173 643.438 277.186 642.777 277.199 642.116C277.212 641.455 277.226 640.794 277.239 640.134C278.12 637.341 278.484 635.695 278.328 635.196C278.847 634.049 279.116 632.98 279.135 631.989C279.324 630.835 279.832 630.184 280.662 630.035C281.058 626.737 281.424 624.926 281.761 624.602C282.105 623.948 282.536 623.047 283.054 621.9C283.917 620.099 284.513 619.202 284.843 619.208C285.174 619.215 285.588 619.14 286.087 618.985C288.563 619.199 289.706 619.883 289.518 621.036C289.33 622.19 289.638 623.353 290.441 624.526C289.067 627.144 288.457 628.702 288.613 629.201C288.775 629.369 288.768 629.7 288.593 630.192C286.538 633.788 286.149 636.756 287.425 639.095C286.381 641.72 285.856 643.197 285.85 643.527C286.012 643.696 286.089 643.945 286.083 644.276C285.221 646.077 285.019 647.891 285.479 649.719C285.077 653.347 284.782 655.738 284.593 656.892C284.736 658.052 284.548 659.205 284.029 660.352C285.15 662.192 285.535 663.605 285.185 664.59C286.144 666.262 286.772 667.927 287.07 669.586C287.536 671.083 287.834 672.742 287.963 674.563C289.421 676.079 290.379 677.751 290.839 679.579C291.467 681.244 292.598 682.589 294.23 683.613C295.008 686.108 295.561 687.359 295.892 687.365C296.222 687.372 296.55 687.544 296.873 687.881C298.642 690.395 300.414 692.744 302.189 694.928C304.132 696.95 306.429 697.822 309.08 697.544C311.192 699.404 312.582 700.176 313.249 699.858C315.543 700.896 317.354 701.262 318.682 700.958C320.814 701.826 322.372 702.436 323.357 702.786C324.342 703.136 325.418 703.075 326.584 702.602C327.711 704.112 328.443 704.705 328.78 704.381C329.448 704.064 330.112 703.911 330.773 703.924C334.57 704.165 337.302 703.971 338.967 703.343C340.794 702.883 342.295 702.252 343.468 701.448C345.625 700.995 347.365 700.782 348.687 700.808C350.171 701.002 351.176 700.361 351.701 698.884C353.023 698.91 354.263 698.852 355.423 698.709C356.583 698.567 357.746 698.26 358.913 697.787C361.265 695.85 362.691 694.803 363.19 694.648C363.689 694.493 364.272 694.256 364.94 693.939C367.623 692.008 369.136 690.716 369.48 690.061C369.992 689.245 370.663 688.762 371.492 688.614C372.341 687.473 372.931 686.906 373.261 686.913C373.76 686.757 374.34 686.686 375.001 686.699C376.019 685.397 377.033 684.26 378.044 683.288C379.217 682.485 380.562 681.355 382.078 679.897C383.116 677.603 383.803 676.294 384.14 675.97C384.477 675.647 384.986 674.995 385.666 674.017C387.021 672.391 388.207 670.927 389.224 669.624C391.084 667.512 392.452 665.225 393.327 662.763C394.047 659.802 394.491 658.24 394.66 658.078C395.159 657.923 395.496 657.599 395.671 657.106C396.728 653.821 397.263 651.848 397.276 651.187C397.457 650.365 397.555 649.623 397.568 648.962C398.404 648.482 398.916 647.666 399.104 646.513C399.454 645.528 399.804 644.543 400.154 643.558C399.37 641.394 399.069 639.9 399.251 639.077C399.433 638.254 400.022 637.687 401.02 637.376C401.033 636.715 401.046 636.054 401.06 635.394C401.073 634.733 400.921 634.068 400.603 633.401C401.154 630.602 401.43 629.202 401.43 629.202C401.592 629.371 401.842 629.293 402.179 628.969C402.38 627.155 402.487 625.917 402.5 625.256C402.675 624.764 402.853 624.106 403.035 623.283C403.768 619.661 403.985 617.02 403.688 615.362C403.409 612.711 403.274 611.221 403.28 610.89C403.171 608.078 403.035 606.588 402.873 606.419C402.873 606.419 402.879 606.089 402.892 605.428C402.809 601.294 401.64 597.717 399.386 594.697C399.736 593.712 399.506 592.798 398.696 591.955C397.886 591.113 397.737 590.283 398.249 589.467C397.433 588.955 396.866 588.365 396.549 587.698C396.4 586.868 396.167 586.12 395.849 585.452C394.547 584.435 393.737 583.592 393.42 582.925C393.433 582.264 393.196 581.681 392.711 581.175C390.572 580.637 389.425 580.118 389.27 579.619C389.283 578.958 389.131 578.294 388.814 577.627C388.49 577.29 388 576.949 387.346 576.606C386.86 576.1 386.374 575.595 385.888 575.089C383.115 573.216 381.648 572.195 381.486 572.027C379.691 570.834 378.551 569.985 378.065 569.48C377.741 569.143 377.249 568.968 376.588 568.954C375.933 568.611 375.363 568.186 374.877 567.681C374.553 567.344 373.899 567 372.914 566.65C371.275 565.957 370.044 565.519 369.221 565.337C368.566 564.994 367.912 564.65 367.258 564.307C366.111 563.788 365.129 563.273 364.313 562.761C363.665 562.087 362.929 561.659 362.107 561.477C360.461 561.114 359.392 560.845 358.899 560.67C358.407 560.495 357.911 560.485 357.412 560.641C355.287 559.441 353.56 558.994 352.232 559.298C350.268 558.268 348.96 557.58 348.305 557.237C347.651 556.893 346.993 556.715 346.332 556.702C345.671 556.689 345.014 556.511 344.359 556.167C343.705 555.823 343.131 555.564 342.639 555.389L338.207 553.814C335.401 553.593 333.503 553.473 332.511 553.453C331.52 553.433 330.454 552.999 329.314 552.15C328.491 551.968 327.746 552.036 327.078 552.354C326.249 552.503 325.345 552.237 324.367 551.556C323.051 551.2 321.567 551.005 319.915 550.972C318.768 550.454 317.783 550.103 316.96 549.922C316.137 549.74 315.068 549.471 313.753 549.115C312.438 548.758 310.957 548.398 309.311 548.035C307.173 547.497 305.773 547.221 305.112 547.208C304.62 547.033 304.128 546.858 303.635 546.683C301.983 546.65 301.076 546.549 300.914 546.381C300.59 546.044 300.182 545.788 299.689 545.613C297.382 545.237 295.737 544.873 294.752 544.523C292.782 543.823 291.629 543.635 291.292 543.959C290.793 544.114 290.297 544.105 289.804 543.93C288.658 543.411 287.919 543.148 287.588 543.142C287.096 542.967 286.519 542.873 285.858 542.86C282.243 541.796 279.447 541.08 277.471 540.71C276.648 540.528 275.825 540.347 275.002 540.165C274.186 539.653 273.278 539.553 272.28 539.863C269.812 539.319 267.92 538.868 266.604 538.511C265.458 537.993 264.301 537.97 263.134 538.443C261.003 537.574 259.363 536.88 258.217 536.362C257.07 535.843 255.832 535.736 254.504 536.04C252.385 534.511 251.161 533.743 250.83 533.736C248.698 532.867 247.134 532.588 246.136 532.899C243.673 532.024 241.869 531.327 240.722 530.809C237.761 530.089 236.115 529.726 235.785 529.719C235.454 529.713 234.871 529.949 234.035 530.428C232.72 530.072 231.897 529.89 231.566 529.884C231.242 529.547 230.75 529.371 230.089 529.358C227.62 528.814 226.302 528.622 226.133 528.784C225.965 528.946 225.715 529.024 225.385 529.017C224.406 528.337 222.764 527.808 220.457 527.432C216.329 527.185 213.034 526.624 210.572 525.749C207.274 525.353 205.291 525.314 204.624 525.631C203.794 525.78 202.975 525.433 202.165 524.591C201.005 524.733 199.933 524.629 198.948 524.279C197.969 523.598 196.981 523.414 195.983 523.724C193.204 522.182 191.561 521.653 191.056 522.139C190.077 521.459 189.011 521.024 187.858 520.836C186.705 520.648 185.551 520.46 184.398 520.272C183.245 520.084 182.175 519.815 181.191 519.464C180.206 519.114 179.133 519.01 177.973 519.153C177.494 518.317 177.005 517.977 176.506 518.132C175.845 518.119 175.194 517.61 174.552 516.606C173.892 516.593 173.312 516.664 172.813 516.819C172.152 516.806 171.406 516.874 170.577 517.023C170.098 516.187 169.45 515.513 168.633 515.001C167.986 514.327 167.24 514.395 166.398 515.204C164.454 513.182 163.317 512.168 162.987 512.162C162.663 511.825 162.423 511.407 162.268 510.908C158.354 508.185 155.5 506.228 153.706 505.035C151.911 503.843 150.291 502.158 148.847 499.98C148.05 498.477 147.405 497.637 146.913 497.462C146.589 497.125 146.265 496.788 145.941 496.451C145.617 496.114 145.378 495.696 145.222 495.197C145.073 494.368 144.506 493.778 143.522 493.428C142.563 491.756 141.921 490.752 141.598 490.415C141.442 489.916 141.115 489.744 140.616 489.899C139.003 487.884 138.213 486.05 138.245 484.397C137.28 483.056 136.635 482.217 136.312 481.88C136.156 481.381 136.247 480.969 136.584 480.645C134.835 477.139 133.906 473.98 133.796 471.168C133.012 469.004 132.627 467.591 132.64 466.93C132.491 466.1 132.838 465.281 133.681 464.471C133.208 463.305 132.985 462.06 133.011 460.738C133.037 459.417 132.898 458.091 132.593 456.763C133.469 454.301 133.43 452.069 132.478 450.066C133.321 449.256 133.664 448.602 133.509 448.103C133.36 447.273 133.46 446.366 133.811 445.381C133.027 443.217 133.056 441.73 133.899 440.92C134.269 438.944 134.372 437.871 134.21 437.703C133.887 437.366 133.812 436.951 133.987 436.459C134.337 435.474 134.606 434.405 134.794 433.251C135.151 431.936 135.589 430.705 136.107 429.558L137.673 425.622C138.192 424.475 138.295 423.403 137.985 422.405C137.674 421.407 138.27 420.509 139.773 419.713C139.975 417.898 140.335 416.418 140.853 415.271C141.041 414.117 141.56 412.971 142.409 411.83C143.096 410.522 143.537 409.125 143.732 407.641C145.268 405.192 145.874 403.799 145.55 403.462C145.226 403.125 145.067 402.791 145.074 402.461C145.923 401.321 146.688 400.261 147.368 399.283C148.217 398.143 148.82 396.915 149.177 395.6C150.188 394.628 150.862 393.98 151.199 393.656C151.704 393.17 152.132 392.435 152.482 391.45C153.824 390.485 154.498 389.837 154.504 389.506C154.349 389.007 154.278 388.427 154.291 387.766C155.12 387.617 155.707 387.216 156.05 386.561C156.394 385.907 156.572 385.249 156.585 384.588C158.594 383.306 159.359 382.246 158.88 381.41C160.922 378.475 162.859 376.613 164.693 375.823C166.884 373.717 168.225 372.752 168.718 372.927C169.217 372.772 169.722 372.286 170.234 371.469C171.556 371.495 172.719 371.188 173.724 370.547C174.897 369.743 175.986 369.021 176.99 368.38C178.494 367.583 179.741 367.194 180.732 367.214C181.562 367.065 182.401 366.42 183.25 365.28C184.404 365.468 185.56 365.491 186.72 365.349C187.88 365.206 189.05 364.568 190.229 363.435C191.214 363.785 192.125 363.72 192.961 363.241C193.635 362.593 194.38 362.525 195.196 363.037C197.853 362.428 199.347 362.127 199.677 362.134C200.176 361.979 200.669 362.154 201.155 362.659C204.608 363.554 207.336 363.525 209.339 362.573C210.647 363.26 211.963 363.617 213.285 363.643C214.445 363.501 215.679 363.773 216.988 364.46C217.986 364.149 218.974 364.334 219.952 365.015C220.937 365.365 222.003 365.799 223.15 366.318C224.964 366.519 226.607 367.047 228.077 367.903C229.555 368.428 231.032 368.953 232.509 369.478C234.803 370.516 236.115 371.037 236.445 371.044C236.944 370.889 237.44 370.898 237.933 371.073C239.215 373.082 240.019 374.255 240.342 374.592C240.835 374.767 241.243 375.023 241.567 375.361C242.351 377.525 242.982 379.025 243.462 379.861C244.109 380.535 244.508 381.287 244.657 382.116C245.764 384.618 246.642 386.205 247.29 386.879C247.776 387.385 247.766 387.881 247.26 388.367L249.913 392.138C250.334 395.949 250.288 398.262 249.776 399.078C250.223 401.567 250.52 403.225 250.669 404.055C250.818 404.884 250.883 405.795 250.863 406.786C250.85 407.447 250.834 408.273 250.814 409.265C250.801 409.926 250.95 410.755 251.261 411.753C250.878 414.39 250.683 415.874 250.677 416.205C250.67 416.535 250.333 416.859 249.666 417.176C249.653 417.837 249.805 418.502 250.122 419.169C250.278 419.668 250.264 420.329 250.083 421.152C250.906 421.333 251.226 421.836 251.045 422.659C251.032 423.32 251.181 424.149 251.491 425.147C250.96 426.955 250.856 428.027 251.18 428.364C251.51 428.371 251.669 428.704 251.656 429.365C250.308 430.661 249.381 431.552 248.876 432.038C248.37 432.524 248.023 433.343 247.835 434.497C246.837 434.808 246.082 435.371 245.57 436.188C245.058 437.004 244.387 437.487 243.558 437.635C242.761 436.132 241.948 435.455 241.119 435.604C240.458 435.59 239.635 435.409 238.65 435.059C239 434.074 238.932 433.329 238.446 432.823C238.129 432.156 238.145 431.33 238.495 430.345C237.86 429.01 237.394 427.513 237.096 425.854C238.147 422.899 238.601 420.842 238.458 419.682C238.154 418.354 238.261 417.116 238.78 415.969C237.51 413.299 236.885 411.469 236.905 410.477C235.804 407.645 235.256 406.064 235.263 405.734C235.438 405.241 235.448 404.745 235.292 404.247C233.835 402.73 233.109 401.806 233.116 401.476C233.291 400.984 233.216 400.569 232.892 400.232C231.253 399.538 229.786 398.517 228.49 397.169C227.862 395.504 227.22 394.499 226.566 394.156C225.912 393.812 225.26 393.303 224.613 392.629C223.615 392.94 222.626 392.755 221.648 392.075C220.838 391.232 219.857 390.717 218.703 390.529C216.922 388.675 215.7 387.742 215.039 387.729C214.379 387.716 213.718 387.703 213.057 387.69C209.454 385.965 207.066 385.505 205.893 386.308C204.727 386.781 203.493 386.509 202.19 385.491C201.354 385.97 199.945 386.19 197.962 386.151C194.826 385.924 192.759 385.966 191.761 386.276C190.601 386.419 189.441 386.561 188.281 386.703C186.279 387.656 185.193 388.213 185.025 388.375C184.694 388.368 184.283 388.277 183.79 388.102C182.105 389.722 181.013 390.609 180.514 390.765C180.022 390.59 179.526 390.58 179.027 390.735C177.18 392.187 176.088 393.074 175.751 393.398C175.421 393.392 175.417 393.557 175.741 393.894C173.091 394.172 171.763 394.476 171.756 394.807C171.918 394.975 171.831 395.221 171.494 395.545C169.835 395.843 168.493 396.808 167.469 398.441C166.127 399.406 165.453 400.054 165.447 400.385C165.44 400.715 165.269 401.042 164.932 401.366C164.258 402.014 163.584 402.662 162.91 403.31C162.074 403.789 161.48 404.521 161.13 405.506C159.964 405.979 159.031 407.2 158.33 409.17C157.313 410.472 156.801 411.289 156.794 411.619C156.788 411.95 156.616 412.277 156.279 412.601C155.08 414.726 154.558 416.038 154.713 416.537C154.875 416.705 154.869 417.036 154.694 417.528C152.834 419.64 151.732 421.024 151.388 421.678C151.045 422.333 151.116 422.912 151.602 423.418C150.921 424.396 150.571 425.381 150.551 426.373C150.538 427.034 150.026 427.85 149.015 428.822C148.834 429.645 148.652 430.468 148.471 431.29C148.457 431.951 148.195 432.69 147.683 433.506C147.455 436.643 147.096 438.123 146.603 437.948C146.117 437.443 145.615 437.763 145.096 438.91C144.221 441.372 144.023 443.021 144.503 443.857C144.146 445.173 144.201 446.579 144.667 448.076C145.133 449.573 145.188 450.979 144.831 452.294C144.967 453.785 145.11 454.944 145.259 455.774C145.414 456.273 145.32 456.85 144.976 457.504C145.961 457.854 146.525 458.609 146.667 459.769C146.816 460.598 147.548 461.191 148.864 461.548C148.973 464.36 148.94 466.013 148.765 466.505C148.597 466.667 148.59 466.998 148.746 467.497C150.864 469.026 152.251 469.963 152.905 470.306C153.56 470.65 154.133 470.909 154.626 471.084C157.035 474.603 158.312 476.943 158.454 478.103C159.439 478.453 160.258 478.8 160.913 479.143C161.405 479.318 162.056 479.827 162.866 480.669C163.514 481.343 164.078 482.099 164.557 482.934C165.043 483.44 165.778 483.868 166.763 484.218C168.564 485.08 170.207 485.608 171.691 485.803C174.47 487.346 176.016 488.616 176.326 489.614C176.806 490.45 177.619 491.127 178.766 491.646C180.405 492.34 181.727 492.366 182.731 491.724C183.049 492.392 183.619 492.817 184.442 492.998C185.271 492.849 185.932 492.862 186.425 493.037C188.239 493.239 189.473 493.511 190.128 493.854C190.782 494.198 191.524 494.295 192.353 494.146C192.995 495.151 193.646 495.66 194.307 495.673C194.968 495.686 195.713 495.618 196.542 495.469C198.499 496.83 199.643 497.514 199.973 497.521C201.626 497.553 203.19 497.832 204.668 498.357C206.152 498.552 207.392 498.494 208.39 498.183C208.876 498.689 209.365 499.029 209.858 499.204C210.519 499.217 211.173 499.561 211.821 500.235C212.812 500.254 213.801 500.439 214.785 500.789C215.777 500.809 216.849 500.913 218.003 501.101C219.655 501.134 220.643 501.318 220.967 501.655C221.291 501.992 221.699 502.248 222.192 502.423C223.507 502.78 224.829 502.806 226.157 502.502C227.952 503.695 229.595 504.223 231.085 504.087C231.746 504.1 232.572 504.117 233.563 504.136C234.393 503.987 235.303 503.923 236.295 503.942C236.956 503.955 237.613 504.134 238.268 504.477C238.922 504.821 239.583 504.834 240.251 504.517C240.561 505.514 241.294 506.108 242.447 506.296C243.6 506.484 244.588 506.669 245.411 506.85C249.85 508.095 252.963 509.479 254.751 511.002C255.574 511.184 256.316 511.281 256.977 511.294C257.807 511.145 258.548 511.243 259.203 511.586C261.341 512.124 262.741 512.4 263.402 512.413C264.069 512.096 264.73 512.109 265.384 512.452C267.691 512.829 269.425 512.946 270.584 512.803C271.582 512.492 272.739 512.515 274.054 512.872C276.517 513.747 278.162 514.11 278.992 513.962C280.942 515.653 282.086 516.337 282.423 516.013C282.928 515.527 283.346 515.287 283.677 515.294C285.646 515.994 286.631 516.344 286.631 516.344C286.8 516.182 287.13 516.189 287.623 516.364C288.284 516.377 288.941 516.555 289.596 516.899C290.257 516.912 290.921 516.76 291.588 516.442C294.057 516.987 295.457 517.263 295.787 517.269C297.588 518.131 298.654 518.566 298.985 518.572C299.484 518.417 299.895 518.508 300.219 518.845C303.349 519.403 305.487 519.941 306.634 520.459C307.619 520.809 308.775 520.832 310.104 520.528C312.883 522.071 314.36 522.596 314.536 522.103C316.829 523.141 318.468 523.834 319.453 524.184C320.607 524.373 321.763 524.395 322.923 524.253C325.068 524.461 326.795 524.908 328.104 525.595C329.419 525.952 330.744 525.813 332.079 525.178C336.187 526.417 338.899 527.214 340.214 527.571C341.368 527.759 342.676 528.446 344.141 529.632C344.802 529.645 345.547 529.577 346.376 529.428C347.206 529.279 348.035 529.131 348.865 528.982C350.828 530.012 352.383 530.787 353.53 531.306C354.514 531.656 355.665 532.009 356.98 532.366C359.611 533.079 361.088 533.604 361.412 533.941C361.742 533.948 362.241 533.792 362.909 533.475L367.836 535.06ZM407.219 386.821C408.825 389.167 409.71 390.425 409.872 390.593C410.202 390.6 410.448 390.687 410.61 390.856C411.738 392.366 412.544 393.373 413.03 393.879C413.684 394.222 414.17 394.728 414.488 395.395C414.643 395.894 414.711 396.64 414.691 397.631C414.678 398.292 415.164 398.798 416.149 399.148C416.434 401.467 416.826 402.55 417.325 402.394C417.824 402.239 418.154 402.245 418.316 402.414C420.266 404.105 421.4 405.285 421.717 405.952C422.035 406.62 422.355 407.122 422.679 407.459C424.785 409.65 425.831 411.076 425.818 411.737C426.958 412.586 427.765 413.593 428.238 414.76C428.879 415.764 429.695 416.276 430.687 416.296C432.637 417.988 433.771 419.167 434.088 419.835C434.412 420.172 434.985 420.431 435.808 420.612C437.078 423.282 437.959 424.705 438.451 424.88C440.907 426.086 442.54 427.11 443.349 427.952C443.997 428.626 444.898 429.057 446.051 429.246C446.842 431.079 447.972 432.424 449.443 433.28C450.914 434.135 452.381 435.156 453.845 436.342C455.458 438.358 456.43 439.369 456.761 439.375C456.929 439.214 457.175 439.301 457.499 439.638C458.646 440.157 459.786 441.006 460.92 442.185C461.892 443.196 462.955 443.796 464.108 443.984C466.375 446.343 468.342 447.208 470.007 446.58C470.973 447.922 471.705 448.515 472.204 448.359C472.703 448.204 473.114 448.295 473.438 448.632C473.911 449.798 474.643 450.391 475.634 450.411C476.464 450.262 476.869 450.683 476.849 451.675C477.847 451.364 478.764 450.969 479.6 450.489C480.274 449.841 481.023 449.608 481.845 449.79C482.856 448.818 483.861 448.177 484.859 447.866C486.025 447.393 486.787 446.499 487.144 445.184C487.844 443.214 488.038 441.73 487.728 440.732C488.907 439.598 489.588 438.62 489.769 437.797C490.119 436.812 490.469 435.827 490.82 434.843C490.677 433.683 490.775 432.941 491.112 432.617C491.287 432.124 491.627 431.635 492.132 431.149C492.443 432.147 492.673 433.061 492.822 433.89C492.971 434.72 493.7 435.478 495.008 436.165C494.49 437.312 494.052 438.543 493.696 439.859C493.346 440.843 493.323 442 493.627 443.328C493.238 446.296 493.036 448.11 493.023 448.771C493.01 449.432 492.667 450.087 491.993 450.735C491.765 453.871 491.976 455.776 492.623 456.45C492.442 457.273 492.014 458.008 491.34 458.656C490.996 459.311 490.818 459.968 490.805 460.629C490.928 462.78 490.821 464.018 490.484 464.342C490.315 464.504 490.39 464.919 490.707 465.586C488.834 468.359 487.395 470.066 486.39 470.708C485.716 471.356 484.958 472.084 484.116 472.894C482.107 474.177 480.525 474.724 479.372 474.536C478.381 474.516 477.791 475.083 477.603 476.237C476.132 475.381 474.804 475.685 473.617 477.15C471.803 476.948 470.404 476.673 469.419 476.323C468.764 475.979 467.938 475.963 466.94 476.274C466.448 476.099 465.959 475.758 465.473 475.253C464.825 474.579 464.255 474.154 463.762 473.979C463.27 473.804 462.531 473.542 461.546 473.191C460.568 472.511 459.839 471.753 459.36 470.917C455.595 469.024 452.893 467.731 451.254 467.037C449.783 466.181 448.731 465.086 448.096 463.751C446.463 462.727 445.401 462.127 444.908 461.952C444.254 461.609 443.846 461.353 443.684 461.184C442.712 460.173 441.818 459.412 441.001 458.9C440.353 458.226 439.544 457.383 438.572 456.372C436.635 454.019 435.174 452.668 434.189 452.318C433.211 451.638 432.317 450.876 431.507 450.033C429.894 448.018 428.922 447.007 428.591 447C428.429 446.832 428.186 446.579 427.862 446.242C426.573 444.564 425.683 443.637 425.19 443.462C424.698 443.287 424.289 443.031 423.966 442.694C423.084 445.486 422.633 447.378 422.613 448.37C422.6 449.031 422.668 449.776 422.817 450.605C423.452 451.94 423.679 453.019 423.497 453.842C423.153 454.497 422.975 455.154 422.962 455.815C422.761 457.629 422.819 458.87 423.136 459.538C423.622 460.043 423.859 460.627 423.845 461.288C423.482 462.933 423.294 464.087 423.281 464.748C423.275 465.078 423.679 465.499 424.496 466.011C424.146 466.996 424.045 467.903 424.194 468.733C424.343 469.562 424.158 470.551 423.639 471.697C423.931 473.687 424.06 475.508 424.027 477.16C423.995 478.812 423.803 480.131 423.453 481.116C423.109 481.77 423.093 482.596 423.404 483.594C422.866 485.733 422.671 487.216 422.82 488.046C423.137 488.713 423.205 489.459 423.024 490.281C422.317 492.582 422.041 493.981 422.197 494.48C422.19 494.811 421.937 495.054 421.438 495.209C421.03 499.168 421.068 501.4 421.554 501.906C420.517 504.2 420.073 505.761 420.221 506.591C420.37 507.42 419.858 508.236 418.685 509.04C417.972 511.67 416.692 513.711 414.845 515.163C412.836 516.445 411.164 517.404 409.829 518.039C408.831 518.35 408.082 518.583 407.583 518.738C407.085 518.893 406.417 519.211 405.581 519.69C403.255 520.305 401.68 520.522 400.857 520.341C399.872 519.991 398.797 520.052 397.63 520.525C397.326 519.196 396.597 518.438 395.444 518.25C394.128 517.893 393.059 517.624 392.236 517.443C391.595 516.438 391.028 515.848 390.536 515.673C389.881 515.33 389.308 515.07 388.815 514.895C386.703 513.035 385.65 511.94 385.657 511.609C385.664 511.279 385.586 511.03 385.424 510.861C384.776 510.187 384.125 509.678 383.47 509.335C382.654 508.823 382.006 508.149 381.527 507.313C380.419 504.811 379.376 503.22 378.398 502.54C377.588 501.697 377.028 500.777 376.717 499.779C376.413 498.45 376.014 497.699 375.522 497.524C375.036 497.018 374.715 496.516 374.56 496.017C374.107 493.859 373.718 492.612 373.394 492.275C371.95 490.097 371.312 488.927 371.48 488.765C370.683 487.262 370.372 486.264 370.548 485.772C370.729 484.949 370.327 484.362 369.343 484.012C368.883 482.185 368.491 481.102 368.167 480.765C368.012 480.266 367.856 479.767 367.701 479.269C368.213 478.452 368.313 477.545 368.003 476.547C367.692 475.549 366.963 474.791 365.816 474.272C366.685 472.14 366.876 470.822 366.39 470.316C365.742 469.642 365.344 468.891 365.195 468.061C365.565 466.085 366.012 464.358 366.537 462.881C366.901 461.235 366.353 459.654 364.896 458.137C364.773 455.986 364.883 454.583 365.227 453.929C365.577 452.944 365.431 451.949 364.79 450.945C364.972 450.122 365.069 449.38 365.082 448.719C364.933 447.889 364.865 447.144 364.878 446.483C364.911 444.831 364.846 443.92 364.684 443.752C364.523 443.583 364.448 443.169 364.461 442.508C365.343 439.715 365.79 437.988 365.803 437.327C365.687 434.846 365.636 433.274 365.649 432.613C365.662 431.952 365.924 431.214 366.436 430.397C366.651 427.922 367.108 425.7 367.808 423.73C368.158 422.745 368.502 422.091 368.839 421.767C369.182 421.112 369.28 420.37 369.131 419.541C370.323 417.746 371.348 416.113 372.203 414.643C373.429 411.196 374.793 409.074 376.296 408.277C377.638 407.312 379.07 405.935 380.593 404.147C382.926 403.201 384.423 402.735 385.084 402.748C385.914 402.599 386.578 402.447 387.077 402.292C387.582 401.806 388.091 401.154 388.603 400.338C389.115 399.522 389.786 399.039 390.615 398.89C393.596 398.619 395.171 398.402 395.339 398.24C395.676 397.916 396.175 397.761 396.836 397.774C399.83 396.841 401.509 395.552 401.872 393.906C402.235 392.26 402.595 390.78 402.951 389.464C403.787 388.985 404.458 388.502 404.964 388.016C405.476 387.2 406.227 386.802 407.219 386.821ZM386.819 427.825C385.977 428.635 385.225 429.033 384.564 429.02C384.072 428.845 383.576 428.836 383.077 428.991C381.236 430.112 380.054 431.411 379.529 432.888C379.003 434.365 378.067 435.752 376.719 437.047C376.491 440.184 376.459 441.836 376.621 442.005C376.905 444.324 377.038 445.98 377.018 446.971C376.999 447.963 377.562 448.718 378.709 449.236C377.497 452.023 377.458 454.005 378.591 455.185C379.725 456.364 379.864 457.69 379.009 459.16C379.65 460.165 380.126 461.166 380.437 462.164C380.748 463.162 381.224 464.163 381.865 465.168C383.303 467.676 384.103 469.014 384.265 469.182C384.596 469.189 384.839 469.442 384.994 469.941C385.467 471.107 385.774 472.27 385.917 473.43C386.228 474.428 386.794 475.018 387.617 475.2C388.893 477.539 389.771 479.127 390.251 479.963C390.73 480.799 391.206 481.8 391.679 482.966C393.305 484.321 394.523 485.42 395.333 486.262C396.143 487.105 397.118 487.95 398.258 488.799C399.567 489.487 400.626 490.251 401.436 491.094C404.08 491.146 405.402 491.172 405.402 491.172C405.57 491.01 405.735 491.014 405.897 491.182C408.58 489.252 410.087 488.29 410.418 488.296C410.917 488.141 411.665 487.908 412.663 487.597C412.696 485.945 412.89 484.461 413.247 483.145C413.604 481.83 413.303 480.336 412.344 478.664C412.571 475.528 412.61 473.545 412.462 472.716C412.319 471.556 412.507 470.403 413.026 469.256C412.605 465.446 412.395 463.54 412.395 463.54C412.771 461.234 412.72 459.662 412.241 458.826C411.93 457.828 411.376 456.578 410.579 455.074C410.774 453.59 410.874 452.683 410.881 452.353C410.894 451.692 410.492 451.105 409.676 450.593C409.365 449.595 409.135 448.682 408.986 447.852C408.844 446.692 408.368 445.691 407.558 444.848C408.077 443.702 408.177 442.794 407.86 442.127C407.549 441.129 407.815 440.225 408.657 439.415C407.206 437.568 406.568 436.399 406.743 435.906C406.756 435.245 407.1 434.591 407.774 433.943C406.329 431.765 405.371 430.093 404.898 428.927C404.425 427.76 403.952 426.594 403.479 425.428C401.004 425.213 399.443 424.769 398.795 424.095C396.637 424.548 395.389 424.937 395.052 425.261C394.722 425.254 394.31 425.163 393.818 424.988C392.82 425.299 391.903 425.694 391.067 426.174C390.238 426.323 389.405 426.637 388.569 427.116L386.819 427.825ZM511.818 363.601C509.53 362.233 508.218 361.711 507.881 362.035C507.551 362.028 507.139 361.938 506.647 361.763C504.515 360.894 503.284 360.456 502.954 360.45C500.984 359.75 499.669 359.393 499.008 359.38C498.515 359.205 497.858 359.026 497.035 358.845C495.369 359.473 494.125 359.696 493.302 359.515C492.648 359.171 491.984 359.323 491.31 359.971C490.675 358.636 489.696 357.956 488.375 357.93C487.053 357.903 485.977 357.965 485.148 358.114C483.508 357.42 482.277 356.982 481.454 356.801C480.469 356.451 479.485 356.101 478.5 355.751C477.677 355.569 476.851 355.553 476.021 355.702C475.03 355.682 473.961 355.413 472.814 354.894C471.984 355.043 471.074 355.108 470.082 355.088C469.091 355.068 468.022 354.799 466.875 354.281C463.907 353.891 462.339 353.778 462.171 353.94C461.84 353.933 461.429 353.842 460.936 353.667C460.113 353.486 459.294 353.139 458.477 352.627C457.499 351.946 456.427 351.842 455.26 352.315C453.958 351.298 452.643 350.941 451.314 351.245C448.846 350.701 447.446 350.425 447.115 350.418C446.623 350.243 446.289 350.402 446.114 350.894C444.475 350.201 443.406 349.932 442.907 350.087C442.414 349.912 441.919 349.902 441.42 350.058C440.286 348.878 439.142 348.194 437.989 348.006C436.836 347.818 435.682 347.63 434.529 347.442C434.056 346.275 433.402 345.932 432.566 346.411C431.736 346.56 431.166 346.136 430.855 345.138C429.857 345.448 428.869 345.264 427.891 344.583C426.913 343.902 425.85 343.303 424.703 342.784C422.409 341.747 420.854 340.972 420.038 340.46C419.222 339.948 418.409 339.271 417.599 338.429C415.979 336.743 415.169 335.901 415.169 335.901C415.176 335.57 415.098 335.321 414.936 335.152L411.797 330.875C410.204 327.868 409.66 326.122 410.165 325.636C409.524 324.631 409.058 323.135 408.767 321.145C408.65 318.663 408.596 317.257 408.602 316.927C408.615 316.266 408.547 315.521 408.398 314.691C408.6 312.877 408.791 311.558 408.973 310.735C409.161 309.582 409.099 308.506 408.789 307.508C409.152 305.863 409.178 304.541 408.867 303.543C409.541 302.895 409.719 302.237 409.402 301.57C409.085 300.902 409.428 300.248 410.433 299.606C409.623 298.764 409.305 298.096 409.481 297.604C409.662 296.781 409.759 296.039 409.773 295.378C411.497 291.776 412.123 289.391 411.65 288.225C412.849 286.1 413.536 284.791 413.711 284.298C414.567 282.828 415.179 281.104 415.549 279.128C417.085 276.679 418.106 275.211 418.612 274.725C419.117 274.239 419.542 273.669 419.885 273.015C420.76 270.553 421.37 268.994 421.713 268.34C422.063 267.355 422.575 266.539 423.25 265.891C425.434 264.116 426.697 262.901 427.041 262.247C427.391 261.262 427.903 260.445 428.577 259.798C428.914 259.474 429.416 259.153 430.084 258.836C430.758 258.188 431.348 257.621 431.853 257.135C433.532 255.846 434.62 255.124 435.119 254.968C435.787 254.651 436.373 254.249 436.879 253.763C437.702 253.945 438.447 253.877 439.114 253.559C439.95 253.08 440.786 252.601 441.622 252.121C444.098 252.336 446.084 252.21 447.581 251.743C449.24 251.446 450.396 251.469 451.051 251.812C451.543 251.987 452.042 251.832 452.548 251.346C453.519 252.357 454.741 253.29 456.211 254.146C457.689 254.671 459.001 255.193 460.148 255.711C462.104 257.073 463.407 258.09 464.054 258.764C464.709 259.108 465.447 259.37 466.27 259.552C468.052 261.405 468.849 262.909 468.661 264.062C468.311 265.047 468.868 266.133 470.332 267.319C469.8 269.126 470.419 271.288 472.187 273.802C471.021 274.275 470.431 274.842 470.418 275.503C470.405 276.164 470.142 276.902 469.63 277.719C469.584 280.032 469.801 281.607 470.28 282.443C470.766 282.948 470.672 283.525 469.998 284.173C469.116 286.965 468.669 288.692 468.656 289.353C468.643 290.014 468.63 290.675 468.617 291.336C468.098 292.483 467.829 293.552 467.809 294.543C467.796 295.204 467.449 296.024 466.769 297.002C465.622 296.484 464.634 296.299 463.805 296.448C462.813 296.428 461.822 296.408 460.83 296.389C459.224 294.043 458.42 292.87 458.42 292.87C457.462 291.198 456.989 290.031 457.002 289.37C457.022 288.379 456.792 287.465 456.312 286.629C453.701 284.925 452.153 283.819 451.667 283.314C451.019 282.64 450.203 282.128 449.218 281.778C448.557 281.765 447.812 281.833 446.982 281.981C446.159 281.8 445.673 281.294 445.525 280.465C444.682 281.275 443.849 281.589 443.026 281.407C442.372 281.064 441.785 281.465 441.267 282.612C439.958 281.925 438.714 282.148 437.534 283.282C436.193 284.247 434.864 284.552 433.549 284.195C431.858 286.145 430.756 287.529 430.244 288.345C429.9 288.999 429.391 289.65 428.717 290.298C428.043 290.946 427.201 291.756 426.19 292.728C425.017 293.531 424.171 294.506 423.652 295.653C423.134 296.8 422.78 297.95 422.592 299.103C422.404 300.257 421.804 301.319 420.793 302.291C421.551 305.777 422.163 308.269 422.629 309.766C423.925 311.114 424.812 312.206 425.292 313.042C425.94 313.716 426.257 314.383 426.244 315.044C427.067 315.226 427.805 315.488 428.46 315.832C429.283 316.014 430.109 316.03 430.938 315.881C433.232 316.918 435.367 317.622 437.343 317.991C439.326 318.031 441.134 318.562 442.767 319.587C444.095 319.282 445.333 319.389 446.48 319.908C447.626 320.427 448.864 320.534 450.192 320.229C452.324 321.098 453.805 321.458 454.634 321.309C456.597 322.34 458.243 322.703 459.572 322.399C462.533 323.118 464.179 323.482 464.509 323.488C464.84 323.495 465.083 323.747 465.238 324.246C467.214 324.616 468.533 324.807 469.194 324.821C469.855 324.834 470.674 325.18 471.653 325.861C472.482 325.712 473.308 325.729 474.131 325.91C474.961 325.761 475.79 325.612 476.62 325.463C477.436 325.976 478.09 326.319 478.583 326.494C479.244 326.507 479.817 326.766 480.303 327.272C482.111 327.804 483.18 328.073 483.51 328.079C484.009 327.924 484.589 327.853 485.25 327.866C486.073 328.047 486.812 328.31 487.466 328.654C488.289 328.835 489.2 328.77 490.198 328.46C491.817 330.145 492.715 330.741 492.89 330.249C493.065 329.756 493.398 329.597 493.891 329.772C494.714 329.954 495.456 330.051 496.117 330.064C496.946 329.916 497.772 329.932 498.595 330.114C500.565 330.814 502.045 331.174 503.037 331.193C503.866 331.044 504.854 331.229 506.001 331.748C508.47 332.293 509.873 332.403 510.21 332.079C511.849 332.773 513.401 333.713 514.865 334.899C516.336 335.754 517.907 335.703 519.579 334.744C521.205 336.099 522.514 336.786 523.506 336.805C526.143 337.188 527.377 337.46 527.209 337.622C527.209 337.622 527.374 337.626 527.704 337.632C530.173 338.177 531.569 338.618 531.893 338.955C532.217 339.292 532.626 339.548 533.118 339.723C534.926 340.255 536.244 340.446 537.074 340.297C539.361 341.665 540.666 342.517 540.99 342.854C543.122 343.723 544.35 344.326 544.674 344.663C545.166 344.838 545.244 345.087 544.907 345.411C546.883 345.781 548.762 346.893 550.544 348.746C552.325 350.6 553.786 351.951 554.927 352.8C555.535 355.457 556.005 356.789 556.335 356.795C556.834 356.64 557.242 356.896 557.56 357.563C558.033 358.73 558.506 359.896 558.978 361.063C559.62 362.067 559.516 363.14 558.667 364.28C559.606 366.943 560.072 368.44 560.066 368.771C560.227 368.939 560.221 369.27 560.046 369.762C560.823 372.257 561.121 373.916 560.939 374.739C560.926 375.4 561.244 376.067 561.891 376.741C562.021 378.562 562.082 379.638 562.075 379.968C562.069 380.299 562.312 380.551 562.804 380.726C561.78 382.359 561.42 383.84 561.725 385.168C562.359 386.503 562.084 387.903 560.898 389.367C562.66 392.212 562.695 394.609 561.003 396.56C560.951 399.203 560.999 400.94 561.148 401.769C561.297 402.599 561.446 403.428 561.595 404.258C560.733 406.059 560.292 407.455 560.272 408.447C560.421 409.276 560.486 410.187 560.466 411.178L559.386 415.62C559.697 416.618 559.597 417.525 559.084 418.341C558.741 418.996 558.478 419.734 558.297 420.557C557.914 423.194 557.719 424.678 557.713 425.009C557.875 425.177 557.787 425.423 557.45 425.747C555.24 428.844 553.62 431.374 552.589 433.338C551.558 435.301 550.44 437.51 549.234 439.966C547.232 440.918 546.227 441.559 546.221 441.89C546.383 442.058 546.38 442.224 546.211 442.386C544.546 443.014 543.541 443.655 543.198 444.31C543.016 445.132 542.514 445.453 541.691 445.272C540.842 446.412 539.996 447.387 539.153 448.197C538.641 449.013 537.883 449.742 536.879 450.383C534.727 450.506 533.399 450.81 532.893 451.296C530.736 451.749 529.32 452.3 528.646 452.948C528.133 453.764 527.294 454.409 526.128 454.882C524.981 454.363 523.824 454.34 522.658 454.813C521.66 455.124 520.419 455.182 518.935 454.987C516.473 454.112 515.077 453.671 514.746 453.664C514.247 453.82 513.667 453.891 513.006 453.878C510.544 453.003 509.232 452.481 509.07 452.312C508.902 452.474 508.571 452.468 508.079 452.293C505.785 451.256 504.726 450.491 504.901 449.998C505.069 449.836 504.745 449.499 503.929 448.987C503.268 448.974 502.779 448.634 502.461 447.966C501.975 447.461 501.243 446.868 500.265 446.187C498.632 445.163 497.654 444.483 497.33 444.146C497.006 443.809 496.766 443.391 496.611 442.892C494.991 441.207 494.185 440.199 494.191 439.868C494.198 439.538 494.039 439.204 493.715 438.867C493.236 438.031 492.672 437.276 492.024 436.602C491.377 435.928 490.894 435.257 490.577 434.59C489.502 430.436 488.566 427.607 487.769 426.104C486.81 424.432 486.759 422.861 487.614 421.39C486.973 420.385 486.51 418.723 486.225 416.403C485.766 414.576 485.717 412.839 486.081 411.194L485.673 406.722C486.043 404.746 486.15 403.508 485.995 403.009C486.008 402.349 486.516 401.697 487.521 401.056C487.755 397.589 487.956 395.775 488.125 395.613C488.3 395.121 489.055 394.557 490.39 393.922C490.7 394.92 491.092 396.002 491.565 397.169C492.044 398.005 492.777 398.598 493.761 398.948C494.202 401.767 494.503 403.261 494.665 403.429C494.827 403.598 494.904 403.847 494.898 404.177C495.202 405.506 495.432 406.42 495.587 406.919C495.743 407.418 495.895 408.082 496.044 408.911C496.827 411.076 497.3 412.242 497.462 412.411C497.793 412.417 498.12 412.589 498.444 412.926C499.888 415.103 500.611 416.192 500.611 416.192C500.779 416.03 500.944 416.033 501.106 416.202C503.057 417.894 504.028 418.905 504.022 419.235C504.022 419.235 504.103 419.319 504.265 419.488C505.574 420.175 506.387 420.852 506.704 421.52C507.19 422.025 507.763 422.285 508.424 422.298C509.875 424.145 510.935 424.909 511.602 424.592C512.257 424.936 512.911 425.279 513.565 425.623C514.22 425.966 514.79 426.391 515.276 426.896C518.088 426.787 520.155 426.745 521.477 426.771C522.799 426.797 524.134 426.162 525.482 424.867C528.288 425.088 529.778 424.952 529.953 424.459C530.459 423.973 531.048 423.407 531.723 422.759C533.057 422.124 534.477 421.408 535.98 420.611C537.484 419.815 538.738 419.096 539.742 418.454C540.941 416.329 542.04 415.111 543.038 414.8C544.055 413.498 544.982 412.607 545.818 412.128C546.823 411.487 547.665 410.677 548.346 409.698C548.696 408.714 548.881 407.725 548.9 406.734C549.082 405.911 549.513 405.01 550.194 404.032C550.9 401.732 550.933 400.08 550.292 399.075C549.981 398.077 550.247 397.173 551.089 396.363C550.656 393.214 550.361 391.39 550.206 390.891C550.219 390.23 550.397 389.572 550.741 388.918C550.261 388.082 549.944 387.414 549.788 386.916C549.801 386.255 549.649 385.59 549.332 384.923C547.55 383.069 546.579 382.058 546.417 381.89C546.423 381.559 546.264 381.226 545.94 380.889C543.362 377.532 541.257 375.341 539.624 374.317C538.16 373.131 536.773 372.194 535.464 371.507C533.501 370.476 532.189 369.955 531.528 369.941C530.874 369.598 530.216 369.42 529.555 369.406C527.929 368.052 526.701 367.449 525.872 367.598C524.88 367.578 523.98 367.147 523.17 366.305C520.222 364.924 517.912 364.713 516.24 365.672L511.818 363.601ZM586.677 214.328C588.284 216.674 589.168 217.932 589.33 218.1C589.661 218.107 589.907 218.194 590.069 218.363C591.196 219.873 592.003 220.88 592.489 221.386C593.143 221.73 593.629 222.235 593.946 222.903C594.102 223.402 594.17 224.147 594.15 225.138C594.137 225.799 594.623 226.305 595.608 226.655C595.892 228.975 596.284 230.057 596.783 229.901C597.282 229.746 597.613 229.752 597.775 229.921C599.725 231.613 600.858 232.792 601.176 233.46C601.493 234.127 601.814 234.629 602.138 234.966C604.243 237.157 605.29 238.583 605.276 239.244C606.417 240.093 607.223 241.1 607.696 242.267C608.337 243.271 609.154 243.783 610.145 243.803C612.095 245.495 613.229 246.674 613.547 247.342C613.87 247.679 614.444 247.938 615.267 248.12C616.536 250.789 617.417 252.212 617.91 252.387C620.365 253.593 621.998 254.617 622.808 255.459C623.456 256.133 624.356 256.564 625.51 256.753C626.3 258.586 627.431 259.931 628.901 260.787C630.372 261.642 631.84 262.663 633.304 263.849C634.917 265.865 635.889 266.876 636.219 266.883C636.388 266.721 636.634 266.808 636.958 267.145C638.105 267.664 639.245 268.513 640.379 269.692C641.35 270.703 642.413 271.303 643.566 271.491C645.834 273.85 647.8 274.716 649.466 274.087C650.431 275.429 651.163 276.022 651.662 275.866C652.161 275.711 652.573 275.802 652.897 276.139C653.369 277.305 654.102 277.898 655.093 277.918C655.922 277.769 656.327 278.19 656.308 279.182C657.306 278.871 658.223 278.476 659.059 277.996C659.733 277.349 660.481 277.115 661.304 277.297C662.315 276.325 663.319 275.684 664.317 275.373C665.484 274.9 666.245 274.006 666.602 272.691C667.302 270.721 667.497 269.237 667.186 268.239C668.366 267.105 669.046 266.127 669.228 265.304C669.578 264.319 669.928 263.335 670.278 262.35C670.136 261.19 670.233 260.448 670.57 260.124C670.745 259.631 671.085 259.142 671.591 258.656C671.902 259.654 672.132 260.568 672.28 261.397C672.429 262.227 673.158 262.985 674.467 263.672C673.948 264.819 673.511 266.05 673.154 267.366C672.804 268.35 672.781 269.507 673.086 270.836C672.696 273.803 672.495 275.618 672.482 276.278C672.469 276.939 672.125 277.594 671.451 278.242C671.224 281.378 671.434 283.283 672.082 283.957C671.9 284.78 671.473 285.515 670.799 286.163C670.455 286.818 670.277 287.475 670.264 288.136C670.386 290.287 670.279 291.525 669.942 291.849C669.774 292.011 669.848 292.426 670.165 293.093C668.292 295.866 666.853 297.573 665.849 298.215C665.175 298.863 664.417 299.591 663.574 300.401C661.565 301.684 659.984 302.231 658.831 302.043C657.839 302.023 657.249 302.59 657.061 303.744C655.591 302.888 654.262 303.192 653.076 304.657C651.262 304.455 649.862 304.18 648.877 303.83C648.223 303.486 647.397 303.47 646.399 303.781C645.906 303.606 645.417 303.265 644.931 302.76C644.283 302.086 643.713 301.661 643.221 301.486C642.728 301.311 641.99 301.049 641.005 300.698C640.026 300.018 639.298 299.26 638.818 298.424C635.054 296.531 632.352 295.238 630.713 294.544C629.242 293.688 628.189 292.593 627.554 291.258C625.922 290.234 624.859 289.634 624.367 289.459C623.712 289.116 623.304 288.86 623.142 288.691C622.17 287.68 621.276 286.919 620.46 286.407C619.812 285.733 619.002 284.89 618.03 283.879C616.093 281.527 614.632 280.175 613.647 279.825C612.669 279.145 611.775 278.383 610.965 277.54C609.352 275.525 608.38 274.514 608.05 274.507C607.888 274.339 607.645 274.086 607.321 273.749C606.032 272.071 605.141 271.144 604.649 270.969C604.156 270.794 603.748 270.538 603.424 270.201C602.542 272.993 602.092 274.885 602.072 275.877C602.059 276.538 602.127 277.283 602.276 278.112C602.91 279.447 603.137 280.526 602.955 281.349C602.612 282.004 602.434 282.661 602.421 283.322C602.219 285.136 602.277 286.377 602.595 287.045C603.081 287.55 603.317 288.134 603.304 288.795C602.941 290.44 602.753 291.594 602.74 292.255C602.733 292.585 603.138 293.006 603.954 293.518C603.604 294.503 603.504 295.411 603.653 296.24C603.801 297.069 603.617 298.058 603.098 299.204C603.389 301.194 603.518 303.015 603.486 304.667C603.453 306.319 603.262 307.638 602.912 308.623C602.568 309.277 602.552 310.103 602.863 311.101C602.324 313.24 602.13 314.723 602.279 315.553C602.596 316.22 602.664 316.966 602.482 317.788C601.775 320.089 601.5 321.488 601.655 321.987C601.649 322.318 601.396 322.561 600.897 322.716C600.488 326.675 600.527 328.908 601.012 329.413C599.975 331.707 599.531 333.268 599.68 334.098C599.829 334.927 599.317 335.744 598.144 336.547C597.431 339.178 596.15 341.218 594.303 342.67C592.294 343.952 590.622 344.911 589.287 345.546C588.289 345.857 587.541 346.09 587.042 346.245C586.543 346.401 585.876 346.718 585.04 347.197C582.713 347.812 581.139 348.029 580.316 347.848C579.331 347.498 578.255 347.559 577.089 348.032C576.784 346.703 576.055 345.945 574.902 345.757C573.587 345.4 572.518 345.131 571.695 344.95C571.053 343.945 570.487 343.355 569.994 343.18C569.34 342.837 568.766 342.577 568.274 342.402C566.162 340.542 565.109 339.447 565.116 339.117C565.122 338.786 565.044 338.537 564.882 338.368C564.235 337.694 563.583 337.185 562.929 336.842C562.113 336.33 561.465 335.656 560.985 334.82C559.878 332.318 558.835 330.727 557.857 330.047C557.047 329.204 556.486 328.284 556.176 327.286C555.871 325.957 555.473 325.206 554.98 325.031C554.494 324.525 554.174 324.023 554.018 323.524C553.565 321.366 553.177 320.119 552.853 319.782C551.408 317.604 550.77 316.434 550.939 316.272C550.142 314.769 549.831 313.771 550.006 313.279C550.188 312.456 549.786 311.869 548.801 311.519C548.341 309.692 547.95 308.609 547.626 308.272C547.47 307.774 547.315 307.275 547.159 306.776C547.671 305.959 547.772 305.052 547.461 304.054C547.15 303.056 546.421 302.298 545.275 301.779C546.143 299.648 546.335 298.329 545.849 297.823C545.201 297.149 544.803 296.398 544.654 295.568C545.023 293.592 545.471 291.865 545.996 290.388C546.359 288.742 545.812 287.161 544.354 285.644C544.231 283.493 544.342 282.09 544.685 281.436C545.036 280.451 544.89 279.456 544.249 278.452C544.43 277.629 544.528 276.887 544.541 276.226C544.392 275.396 544.324 274.651 544.337 273.99C544.37 272.338 544.305 271.427 544.143 271.259C543.981 271.09 543.907 270.676 543.92 270.015C544.801 267.222 545.249 265.495 545.262 264.834C545.146 262.353 545.094 260.781 545.107 260.12C545.12 259.459 545.383 258.721 545.895 257.904C546.109 255.429 546.567 253.207 547.267 251.237C547.617 250.252 547.96 249.598 548.297 249.274C548.641 248.619 548.738 247.877 548.589 247.048C549.782 245.253 550.806 243.62 551.662 242.15C552.887 238.703 554.251 236.581 555.755 235.784C557.096 234.819 558.529 233.442 560.052 231.654C562.385 230.708 563.882 230.242 564.543 230.255C565.372 230.106 566.036 229.954 566.535 229.799C567.041 229.313 567.55 228.662 568.062 227.845C568.574 227.029 569.244 226.546 570.074 226.397C573.055 226.126 574.629 225.909 574.798 225.747C575.135 225.423 575.634 225.268 576.295 225.281C579.289 224.348 580.967 223.059 581.33 221.413C581.693 219.767 582.053 218.287 582.41 216.971C583.246 216.492 583.917 216.009 584.422 215.523C584.934 214.707 585.686 214.309 586.677 214.328ZM566.278 255.332C565.435 256.142 564.684 256.541 564.023 256.527C563.53 256.352 563.034 256.343 562.536 256.498C560.695 257.619 559.512 258.918 558.987 260.395C558.462 261.872 557.525 263.259 556.177 264.555C555.95 267.691 555.917 269.343 556.079 269.512C556.364 271.831 556.496 273.487 556.477 274.478C556.457 275.47 557.021 276.225 558.168 276.743C556.955 279.53 556.916 281.512 558.05 282.692C559.184 283.872 559.323 285.197 558.467 286.667C559.108 287.672 559.585 288.673 559.895 289.671C560.206 290.669 560.682 291.67 561.324 292.675C562.762 295.183 563.562 296.521 563.724 296.689C564.054 296.696 564.297 296.949 564.453 297.448C564.925 298.614 565.233 299.777 565.375 300.937C565.686 301.935 566.253 302.525 567.076 302.707C568.352 305.046 569.23 306.634 569.709 307.47C570.188 308.306 570.665 309.307 571.137 310.473C572.764 311.828 573.982 312.927 574.791 313.769C575.601 314.612 576.576 315.457 577.717 316.307C579.025 316.994 580.085 317.758 580.894 318.601C583.538 318.653 584.86 318.679 584.86 318.679C585.029 318.517 585.194 318.521 585.356 318.689C588.039 316.759 589.546 315.797 589.876 315.803C590.375 315.648 591.123 315.415 592.121 315.104C592.154 313.452 592.349 311.968 592.705 310.652C593.062 309.337 592.761 307.843 591.802 306.171C592.03 303.035 592.069 301.052 591.92 300.223C591.778 299.063 591.966 297.91 592.484 296.763C592.064 292.953 591.854 291.047 591.854 291.047C592.23 288.741 592.178 287.169 591.699 286.333C591.388 285.335 590.834 284.085 590.038 282.581C590.232 281.097 590.333 280.19 590.339 279.86C590.353 279.199 589.951 278.612 589.135 278.1C588.824 277.102 588.594 276.189 588.445 275.359C588.303 274.199 587.827 273.198 587.017 272.355C587.535 271.209 587.636 270.301 587.318 269.634C587.008 268.636 587.273 267.732 588.116 266.922C586.665 265.075 586.027 263.906 586.202 263.413C586.215 262.752 586.558 262.098 587.233 261.45C585.788 259.272 584.829 257.6 584.356 256.434C583.884 255.268 583.411 254.101 582.938 252.935C580.463 252.72 578.901 252.276 578.253 251.602C576.095 252.055 574.848 252.444 574.511 252.768C574.18 252.761 573.769 252.67 573.277 252.495C572.279 252.806 571.362 253.201 570.526 253.681C569.696 253.83 568.864 254.144 568.028 254.623L566.278 255.332Z" fill="white"/>
</svg>
