<svg width="28" height="28" viewBox="0 0 28 28" fill="none" xmlns="http://www.w3.org/2000/svg">
<path d="M22.1666 9.33333H5.83331C3.89665 9.33333 2.33331 10.8967 2.33331 12.8333V19.8333H6.99998V24.5H21V19.8333H25.6666V12.8333C25.6666 10.8967 24.1033 9.33333 22.1666 9.33333ZM18.6666 22.1667H9.33331V16.3333H18.6666V22.1667ZM22.1666 14C21.525 14 21 13.475 21 12.8333C21 12.1917 21.525 11.6667 22.1666 11.6667C22.8083 11.6667 23.3333 12.1917 23.3333 12.8333C23.3333 13.475 22.8083 14 22.1666 14ZM21 3.5H6.99998V8.16667H21V3.5Z" fill="#6D7FB8"/>
</svg>
